<?xml version="1.0" encoding="UTF-8"?>
<svg id="Camada_2" data-name="Camada 2" xmlns="http://www.w3.org/2000/svg" viewBox="0 0 320.87 320.87">
  <defs>
    <style>
      .cls-1 {
        fill: #2196f3;
        stroke-width: 0px;
      }
    </style>
  </defs>
  <g id="Camada_1-2" data-name="Camada 1">
    <g>
      <polygon class="cls-1" points="159.88 165.29 150.77 172.43 85.05 100.9 85.05 245.11 73.85 245.11 73.85 71.66 85.05 83.83 159.88 165.29"/>
      <path class="cls-1" d="m320.87,160.44c0,28.58-7.47,55.43-20.58,78.67l-8.31-9.05c11.04-20.78,17.27-44.45,17.27-69.62,0-82.19-66.63-148.82-148.82-148.82-20.69,0-40.4,4.21-58.29,11.84-11.57,4.94-22.37,11.29-32.22,18.85-4.5,3.44-8.78,7.14-12.86,11.09-2.79,2.68-5.45,5.45-8,8.36-23.3,26.25-37.45,60.82-37.45,98.69,0,82.19,66.63,148.82,148.82,148.82,33.35,0,64.12-10.98,88.95-29.49l-22.9-24.94-53.28-57.98,9.11-7.14,44.17,48.07,11.2,12.17,20.69,22.53,7.87,8.58c-2.9,2.55-5.88,4.99-8.96,7.29-26.92,20.42-60.46,32.53-96.85,32.53C71.84,320.87,0,249.06,0,160.44c0-41.26,15.59-78.89,41.15-107.31,2.62-2.86,5.28-5.63,8.05-8.29,4.08-3.92,8.38-7.65,12.86-11.11,9.76-7.63,20.42-14.1,31.79-19.29C114.14,5.17,136.69,0,160.44,0c88.6,0,160.44,71.84,160.44,160.44Z"/>
      <polygon class="cls-1" points="237.68 71.64 237.68 224.89 226.49 212.7 226.49 71.64 237.68 71.64"/>
      <line class="cls-1" x1="161.61" y1="163.94" x2="159.88" y2="165.29"/>
      <line class="cls-1" x1="150.77" y1="172.43" x2="149.13" y2="173.72"/>
      <line class="cls-1" x1="183.92" y1="188.44" x2="182.32" y2="189.7"/>
      <line class="cls-1" x1="173.21" y1="196.84" x2="171.43" y2="198.22"/>
    </g>
  </g>
</svg>